<?xml version="1.0" standalone="no"?>
<!DOCTYPE svg PUBLIC "-//W3C//DTD SVG 20010904//EN"
 "http://www.w3.org/TR/2001/REC-SVG-20010904/DTD/svg10.dtd">
<svg version="1.0" xmlns="http://www.w3.org/2000/svg"
 width="300.000000pt" height="72.000000pt" viewBox="0 0 300.000000 72.000000"
 preserveAspectRatio="xMidYMid meet">
<metadata>
Created by potrace 1.15, written by Peter Selinger 2001-2017
</metadata>
<g transform="translate(0.000000,72.000000) scale(0.100000,-0.100000)"
fill="#000000" stroke="none">
<path d="M145 696 c-55 -25 -110 -81 -131 -132 -8 -19 -14 -64 -14 -102 0 -91
29 -149 128 -252 l77 -80 61 0 62 0 78 80 c105 107 134 161 134 251 0 80 -14
120 -61 174 -51 57 -118 85 -209 85 -58 0 -87 -6 -125 -24z m105 -262 c0 -135
-4 -243 -8 -240 -18 11 -71 133 -82 190 -14 70 -6 153 21 216 21 46 46 80 61
80 4 0 8 -111 8 -246z m84 213 c64 -83 71 -248 18 -360 -62 -129 -61 -131 -62
146 0 149 4 247 9 247 6 0 21 -15 35 -33z m-190 -29 c-13 -24 -19 -62 -22
-143 -3 -98 -1 -118 21 -178 29 -79 18 -75 -50 16 -56 76 -69 125 -53 195 9
43 22 65 61 105 53 55 70 58 43 5z m310 -19 c74 -87 69 -186 -15 -295 -61 -79
-70 -82 -41 -12 33 82 36 222 5 310 -18 52 -18 56 -2 48 9 -6 33 -28 53 -51z"/>
<path d="M202 98 c-7 -7 -12 -26 -12 -43 0 -45 16 -55 86 -55 47 0 63 4 68 16
10 26 7 69 -6 82 -16 16 -120 16 -136 0z"/>
</g>
</svg>
